<svg width="200" height="200" viewBox="0 0 200 200" xmlns="http://www.w3.org/2000/svg">
  <!-- 8-bit Pentagon Network -->
  
  <!-- Background -->
  <rect width="200" height="200" fill="#1a0033"/>
  
  <!-- Pentagon outline (pixelated lines) -->
  <!-- Top to right -->
  <rect x="100" y="48" width="12" height="4" fill="#6a1b9a"/>
  <rect x="112" y="52" width="8" height="4" fill="#6a1b9a"/>
  <rect x="120" y="56" width="8" height="4" fill="#6a1b9a"/>
  <rect x="128" y="60" width="8" height="4" fill="#6a1b9a"/>
  <rect x="136" y="64" width="8" height="4" fill="#6a1b9a"/>
  <rect x="144" y="68" width="8" height="4" fill="#6a1b9a"/>
  
  <!-- Right to bottom right -->
  <rect x="152" y="72" width="4" height="16" fill="#6a1b9a"/>
  <rect x="148" y="88" width="4" height="12" fill="#6a1b9a"/>
  <rect x="144" y="100" width="4" height="12" fill="#6a1b9a"/>
  <rect x="140" y="112" width="4" height="8" fill="#6a1b9a"/>
  
  <!-- Bottom right to bottom left -->
  <rect x="120" y="120" width="20" height="4" fill="#6a1b9a"/>
  <rect x="100" y="124" width="20" height="4" fill="#6a1b9a"/>
  <rect x="80" y="128" width="20" height="4" fill="#6a1b9a"/>
  <rect x="60" y="124" width="20" height="4" fill="#6a1b9a"/>
  
  <!-- Bottom left to left -->
  <rect x="56" y="112" width="4" height="12" fill="#6a1b9a"/>
  <rect x="52" y="100" width="4" height="12" fill="#6a1b9a"/>
  <rect x="48" y="88" width="4" height="12" fill="#6a1b9a"/>
  <rect x="44" y="72" width="4" height="16" fill="#6a1b9a"/>
  
  <!-- Left to top -->
  <rect x="48" y="68" width="8" height="4" fill="#6a1b9a"/>
  <rect x="56" y="64" width="8" height="4" fill="#6a1b9a"/>
  <rect x="64" y="60" width="8" height="4" fill="#6a1b9a"/>
  <rect x="72" y="56" width="8" height="4" fill="#6a1b9a"/>
  <rect x="80" y="52" width="8" height="4" fill="#6a1b9a"/>
  <rect x="88" y="48" width="12" height="4" fill="#6a1b9a"/>
  
  <!-- Connection lines to center -->
  <rect x="100" y="88" width="4" height="4" fill="#4a148c" opacity="0.5"/>
  <rect x="96" y="84" width="4" height="4" fill="#4a148c" opacity="0.5"/>
  <rect x="104" y="84" width="4" height="4" fill="#4a148c" opacity="0.5"/>
  
  <!-- Node 5 (bottom left) -->
  <rect x="60" y="116" width="16" height="16" fill="#6a1b9a"/>
  <rect x="64" y="120" width="8" height="8" fill="#8b5cf6"/>
  
  <!-- Node 4 (bottom right) -->
  <rect x="124" y="116" width="16" height="16" fill="#6a1b9a"/>
  <rect x="128" y="120" width="8" height="8" fill="#8b5cf6"/>
  
  <!-- Node 3 (left) -->
  <rect x="40" y="76" width="16" height="16" fill="#6a1b9a"/>
  <rect x="44" y="80" width="8" height="8" fill="#8b5cf6"/>
  
  <!-- Node 2 (right) -->
  <rect x="144" y="76" width="16" height="16" fill="#6a1b9a"/>
  <rect x="148" y="80" width="8" height="8" fill="#8b5cf6"/>
  
  <!-- Node 1 (top - special gold) -->
  <!-- Glow -->
  <rect x="88" y="36" width="32" height="32" fill="#ff6b00" opacity="0.4"/>
  <!-- Main -->
  <rect x="92" y="40" width="24" height="24" fill="#ffd700"/>
  <rect x="96" y="44" width="16" height="16" fill="#ffed4e"/>
  <rect x="100" y="48" width="8" height="8" fill="#fffacd"/>
  
  <!-- Crown on top node -->
  <rect x="96" y="32" width="4" height="8" fill="#ffd700"/>
  <rect x="104" y="28" width="4" height="12" fill="#ffd700"/>
  <rect x="112" y="32" width="4" height="8" fill="#ffd700"/>
  <rect x="92" y="40" width="24" height="4" fill="#ffa500"/>
  
  <!-- Center pixel cluster -->
  <rect x="96" y="88" width="16" height="16" fill="#4a148c"/>
  <rect x="100" y="92" width="8" height="8" fill="#6a1b9a"/>
</svg>
