<svg width="200" height="200" viewBox="0 0 200 200" xmlns="http://www.w3.org/2000/svg">
  <!-- Clean 8-bit RG logo - centered -->
  
  <!-- White background -->
  <rect width="200" height="200" fill="#ffffff"/>
  
  <!-- Pixel border frame -->
  <rect x="20" y="20" width="160" height="8" fill="#000000"/>
  <rect x="20" y="172" width="160" height="8" fill="#000000"/>
  <rect x="20" y="28" width="8" height="144" fill="#000000"/>
  <rect x="172" y="28" width="8" height="144" fill="#000000"/>
  
  <!-- Pixel corners -->
  <rect x="28" y="28" width="4" height="4" fill="#000000"/>
  <rect x="168" y="28" width="4" height="4" fill="#000000"/>
  <rect x="28" y="168" width="4" height="4" fill="#000000"/>
  <rect x="168" y="168" width="4" height="4" fill="#000000"/>
  
  <!-- Letter R (redesigned with better proportions, centered) -->
  <!-- Vertical stem -->
  <rect x="54" y="70" width="14" height="64" fill="#000000"/>
  
  <!-- Top horizontal bar -->
  <rect x="68" y="70" width="28" height="12" fill="#000000"/>
  
  <!-- Upper right corner -->
  <rect x="96" y="82" width="10" height="14" fill="#000000"/>
  
  <!-- Middle horizontal bar -->
  <rect x="68" y="96" width="28" height="10" fill="#000000"/>
  
  <!-- Diagonal leg - better angle -->
  <rect x="72" y="106" width="10" height="8" fill="#000000"/>
  <rect x="82" y="114" width="10" height="8" fill="#000000"/>
  <rect x="92" y="122" width="10" height="8" fill="#000000"/>
  <rect x="102" y="130" width="6" height="4" fill="#000000"/>
  
  <!-- Letter G (redesigned, centered) -->
  <!-- Top horizontal bar -->
  <rect x="116" y="70" width="42" height="12" fill="#000000"/>
  
  <!-- Left vertical stem -->
  <rect x="116" y="82" width="14" height="52" fill="#000000"/>
  
  <!-- Bottom horizontal bar -->
  <rect x="130" y="122" width="28" height="12" fill="#000000"/>
  
  <!-- Right vertical (lower portion) -->
  <rect x="148" y="102" width="10" height="32" fill="#000000"/>
  
  <!-- Inner horizontal bar (G hook) -->
  <rect x="138" y="102" width="10" height="10" fill="#000000"/>
  
  <!-- Pixel dots decoration in corners -->
  <rect x="36" y="36" width="4" height="4" fill="#000000"/>
  <rect x="44" y="36" width="4" height="4" fill="#000000"/>
  <rect x="36" y="44" width="4" height="4" fill="#000000"/>
  
  <rect x="156" y="36" width="4" height="4" fill="#000000"/>
  <rect x="164" y="36" width="4" height="4" fill="#000000"/>
  <rect x="164" y="44" width="4" height="4" fill="#000000"/>
  
  <rect x="36" y="156" width="4" height="4" fill="#000000"/>
  <rect x="36" y="164" width="4" height="4" fill="#000000"/>
  <rect x="44" y="164" width="4" height="4" fill="#000000"/>
  
  <rect x="156" y="164" width="4" height="4" fill="#000000"/>
  <rect x="164" y="156" width="4" height="4" fill="#000000"/>
  <rect x="164" y="164" width="4" height="4" fill="#000000"/>
</svg>
