<svg width="200" height="200" viewBox="0 0 200 200" xmlns="http://www.w3.org/2000/svg">
  <!-- Version 4: Rounded Corners (pixel style) -->
  <rect width="200" height="200" fill="#ffffff"/>
  
  <!-- R -->
  <rect x="48" y="66" width="12" height="68" fill="#000000"/>
  <rect x="60" y="62" width="28" height="4" fill="#000000"/>
  <rect x="60" y="66" width="32" height="10" fill="#000000"/>
  <rect x="88" y="76" width="4" height="4" fill="#000000"/>
  <rect x="92" y="80" width="8" height="16" fill="#000000"/>
  <rect x="88" y="96" width="4" height="4" fill="#000000"/>
  <rect x="60" y="96" width="28" height="10" fill="#000000"/>
  <rect x="66" y="106" width="10" height="8" fill="#000000"/>
  <rect x="76" y="114" width="10" height="10" fill="#000000"/>
  <rect x="86" y="124" width="10" height="10" fill="#000000"/>
  
  <!-- G -->
  <rect x="116" y="62" width="40" height="4" fill="#000000"/>
  <rect x="112" y="66" width="48" height="10" fill="#000000"/>
  <rect x="112" y="76" width="12" height="48" fill="#000000"/>
  <rect x="124" y="124" width="32" height="10" fill="#000000"/>
  <rect x="156" y="104" width="8" height="30" fill="#000000"/>
  <rect x="140" y="104" width="16" height="10" fill="#000000"/>
</svg>

